<mxfile host="65bd71144e">
    <diagram id="cGePYmy4Oo4iDMrLaifH" name="페이지-1">
        <mxGraphModel dx="1800" dy="777" grid="0" gridSize="10" guides="1" tooltips="1" connect="1" arrows="1" fold="1" page="0" pageScale="1" pageWidth="827" pageHeight="1169" background="#ffffff" math="0" shadow="0">
            <root>
                <mxCell id="0"/>
                <mxCell id="1" parent="0"/>
                <mxCell id="43" style="edgeStyle=none;html=1;entryX=0.127;entryY=0.999;entryDx=0;entryDy=0;entryPerimeter=0;endArrow=classic;endFill=1;strokeColor=#000000;" parent="1" source="18" target="37" edge="1">
                    <mxGeometry relative="1" as="geometry"/>
                </mxCell>
                <mxCell id="48" style="edgeStyle=none;html=1;entryX=0.36;entryY=-0.033;entryDx=0;entryDy=0;entryPerimeter=0;endArrow=classic;endFill=1;strokeColor=#000000;" parent="1" source="18" target="38" edge="1">
                    <mxGeometry relative="1" as="geometry"/>
                </mxCell>
                <mxCell id="75" style="edgeStyle=orthogonalEdgeStyle;html=1;entryX=0.5;entryY=0;entryDx=0;entryDy=0;strokeColor=#000000;rounded=0;" edge="1" parent="1" source="18" target="72">
                    <mxGeometry relative="1" as="geometry">
                        <Array as="points">
                            <mxPoint x="-213" y="192"/>
                            <mxPoint x="-213" y="297"/>
                        </Array>
                    </mxGeometry>
                </mxCell>
                <mxCell id="18" value="Listener" style="swimlane;fontStyle=1;childLayout=stackLayout;horizontal=1;startSize=30;horizontalStack=0;resizeParent=1;resizeParentMax=0;resizeLast=0;collapsible=1;marginBottom=0;fontColor=#000000;strokeColor=#000000;gradientColor=#ffffff;fillColor=#FFFFFF;fontSize=14;" parent="1" vertex="1">
                    <mxGeometry x="-399" y="162" width="140" height="60" as="geometry"/>
                </mxCell>
                <mxCell id="19" value="checkEvent()" style="text;strokeColor=#000000;fillColor=none;align=left;verticalAlign=middle;spacingLeft=4;spacingRight=4;overflow=hidden;points=[[0,0.5],[1,0.5]];portConstraint=eastwest;rotatable=0;fontColor=#000000;fontStyle=1;fontSize=14;" parent="18" vertex="1">
                    <mxGeometry y="30" width="140" height="30" as="geometry"/>
                </mxCell>
                <mxCell id="22" value="rfid" style="swimlane;fontStyle=1;childLayout=stackLayout;horizontal=1;startSize=30;horizontalStack=0;resizeParent=1;resizeParentMax=0;resizeLast=0;collapsible=1;marginBottom=0;fontColor=#000000;strokeColor=#000000;gradientColor=#ffffff;fillColor=#FFFFFF;fontSize=14;" parent="1" vertex="1">
                    <mxGeometry x="-499" y="252" width="140" height="80" as="geometry"/>
                </mxCell>
                <mxCell id="23" value="request()&#10;get_card_serial()" style="text;strokeColor=#000000;fillColor=none;align=left;verticalAlign=middle;spacingLeft=4;spacingRight=4;overflow=hidden;points=[[0,0.5],[1,0.5]];portConstraint=eastwest;rotatable=0;fontColor=#000000;fontStyle=1;fontSize=14;" parent="22" vertex="1">
                    <mxGeometry y="30" width="140" height="50" as="geometry"/>
                </mxCell>
                <mxCell id="24" value="Monitor&#10;" style="swimlane;fontStyle=1;childLayout=stackLayout;horizontal=1;startSize=30;horizontalStack=0;resizeParent=1;resizeParentMax=0;resizeLast=0;collapsible=1;marginBottom=0;fontColor=#000000;strokeColor=#000000;gradientColor=#ffffff;fillColor=#FFFFFF;fontSize=14;" parent="1" vertex="1">
                    <mxGeometry x="-29" y="332" width="140" height="60" as="geometry"/>
                </mxCell>
                <mxCell id="25" value="print()" style="text;strokeColor=#000000;fillColor=none;align=left;verticalAlign=middle;spacingLeft=4;spacingRight=4;overflow=hidden;points=[[0,0.5],[1,0.5]];portConstraint=eastwest;rotatable=0;fontColor=#000000;fontStyle=1;fontSize=14;" parent="24" vertex="1">
                    <mxGeometry y="30" width="140" height="30" as="geometry"/>
                </mxCell>
                <mxCell id="35" style="edgeStyle=orthogonalEdgeStyle;rounded=0;html=1;strokeColor=#000000;" parent="1" source="28" target="24" edge="1">
                    <mxGeometry relative="1" as="geometry">
                        <mxPoint x="-99" y="272" as="targetPoint"/>
                    </mxGeometry>
                </mxCell>
                <mxCell id="44" style="edgeStyle=none;html=1;entryX=0.874;entryY=0.999;entryDx=0;entryDy=0;entryPerimeter=0;endArrow=classic;endFill=1;strokeColor=#000000;" parent="1" source="28" target="37" edge="1">
                    <mxGeometry relative="1" as="geometry"/>
                </mxCell>
                <mxCell id="71" style="edgeStyle=orthogonalEdgeStyle;rounded=0;html=1;strokeColor=#000000;" parent="1" source="28" target="61" edge="1">
                    <mxGeometry relative="1" as="geometry">
                        <mxPoint x="-121.50000000000045" y="8.999999999999773" as="targetPoint"/>
                    </mxGeometry>
                </mxCell>
                <mxCell id="28" value="Controller" style="swimlane;fontStyle=1;childLayout=stackLayout;horizontal=1;startSize=30;horizontalStack=0;resizeParent=1;resizeParentMax=0;resizeLast=0;collapsible=1;marginBottom=0;fontColor=#000000;strokeColor=#000000;gradientColor=#ffffff;fillColor=#FFFFFF;fontSize=14;" parent="1" vertex="1">
                    <mxGeometry x="-169" y="162" width="140" height="60" as="geometry"/>
                </mxCell>
                <mxCell id="29" value="updateEvent()&#10;" style="text;strokeColor=#000000;fillColor=none;align=left;verticalAlign=middle;spacingLeft=4;spacingRight=4;overflow=hidden;points=[[0,0.5],[1,0.5]];portConstraint=eastwest;rotatable=0;fontColor=#000000;fontStyle=1;fontSize=14;" parent="28" vertex="1">
                    <mxGeometry y="30" width="140" height="30" as="geometry"/>
                </mxCell>
                <mxCell id="31" style="edgeStyle=none;html=1;entryX=0;entryY=0.5;entryDx=0;entryDy=0;strokeColor=#000000;" parent="1" source="19" target="29" edge="1">
                    <mxGeometry relative="1" as="geometry"/>
                </mxCell>
                <mxCell id="36" value="DeviceData" style="swimlane;fontStyle=1;childLayout=stackLayout;horizontal=1;startSize=30;horizontalStack=0;resizeParent=1;resizeParentMax=0;resizeLast=0;collapsible=1;marginBottom=0;fontColor=#000000;strokeColor=#000000;gradientColor=#ffffff;fillColor=#FFFFFF;fontSize=14;" parent="1" vertex="1">
                    <mxGeometry x="-289" y="22" width="180" height="90" as="geometry"/>
                </mxCell>
                <mxCell id="37" value="devName : std::string&#10;&#10;devData: std::vector" style="text;strokeColor=#000000;fillColor=none;align=center;verticalAlign=middle;spacingLeft=4;spacingRight=4;overflow=hidden;points=[[0,0.5],[1,0.5]];portConstraint=eastwest;rotatable=0;fontColor=#000000;fontStyle=1;fontSize=14;" parent="36" vertex="1">
                    <mxGeometry y="30" width="180" height="60" as="geometry"/>
                </mxCell>
                <mxCell id="40" style="edgeStyle=none;html=1;entryX=0.484;entryY=1.037;entryDx=0;entryDy=0;entryPerimeter=0;strokeColor=#000000;endArrow=block;endFill=0;" parent="1" source="38" target="23" edge="1">
                    <mxGeometry relative="1" as="geometry"/>
                </mxCell>
                <mxCell id="47" style="edgeStyle=none;html=1;entryX=0.49;entryY=1.031;entryDx=0;entryDy=0;entryPerimeter=0;endArrow=classic;endFill=1;strokeColor=#000000;" parent="1" source="38" target="37" edge="1">
                    <mxGeometry relative="1" as="geometry"/>
                </mxCell>
                <mxCell id="38" value="cardReader" style="swimlane;fontStyle=1;childLayout=stackLayout;horizontal=1;startSize=30;horizontalStack=0;resizeParent=1;resizeParentMax=0;resizeLast=0;collapsible=1;marginBottom=0;fontColor=#000000;strokeColor=#000000;gradientColor=#ffffff;fillColor=#FFFFFF;fontSize=14;" parent="1" vertex="1">
                    <mxGeometry x="-379" y="392" width="220" height="80" as="geometry"/>
                </mxCell>
                <mxCell id="39" value="request()&#10;getCardNumber : Device Data" style="text;strokeColor=#000000;fillColor=none;align=left;verticalAlign=middle;spacingLeft=4;spacingRight=4;overflow=hidden;points=[[0,0.5],[1,0.5]];portConstraint=eastwest;rotatable=0;fontColor=#000000;fontStyle=1;fontSize=14;" parent="38" vertex="1">
                    <mxGeometry y="30" width="220" height="50" as="geometry"/>
                </mxCell>
                <mxCell id="49" value="&lt;b&gt;DataBase&lt;br&gt;memberList.bin&lt;br&gt;&lt;/b&gt;" style="shape=cylinder3;whiteSpace=wrap;html=1;boundedLbl=1;backgroundOutline=1;size=15;fillColor=#FFFFFF;fontColor=#000000;labelBackgroundColor=none;strokeColor=#000000;" parent="1" vertex="1">
                    <mxGeometry x="750" y="50" width="140" height="70" as="geometry"/>
                </mxCell>
                <mxCell id="53" value="MemberInfo" style="swimlane;fontStyle=1;childLayout=stackLayout;horizontal=1;startSize=30;horizontalStack=0;resizeParent=1;resizeParentMax=0;resizeLast=0;collapsible=1;marginBottom=0;fontColor=#000000;strokeColor=#000000;gradientColor=#ffffff;fillColor=#FFFFFF;fontSize=14;" parent="1" vertex="1">
                    <mxGeometry x="290" y="-360" width="180" height="150" as="geometry"/>
                </mxCell>
                <mxCell id="54" value="id: int&#10;name[10] : char &#10;address[40] : char&#10;phoneNum[15]: char&#10;cardNum[5] : int" style="text;strokeColor=#000000;fillColor=none;align=center;verticalAlign=middle;spacingLeft=4;spacingRight=4;overflow=hidden;points=[[0,0.5],[1,0.5]];portConstraint=eastwest;rotatable=0;fontColor=#000000;fontStyle=1;fontSize=14;" parent="53" vertex="1">
                    <mxGeometry y="30" width="180" height="120" as="geometry"/>
                </mxCell>
                <mxCell id="65" style="edgeStyle=orthogonalEdgeStyle;rounded=0;html=1;entryX=0.855;entryY=0;entryDx=0;entryDy=4.35;entryPerimeter=0;strokeColor=#000000;" parent="1" source="58" target="49" edge="1">
                    <mxGeometry relative="1" as="geometry"/>
                </mxCell>
                <mxCell id="66" style="edgeStyle=orthogonalEdgeStyle;rounded=0;html=1;strokeColor=#000000;" parent="1" source="58" target="53" edge="1">
                    <mxGeometry relative="1" as="geometry"/>
                </mxCell>
                <mxCell id="58" value="MemberEntity" style="swimlane;fontStyle=1;childLayout=stackLayout;horizontal=1;startSize=30;horizontalStack=0;resizeParent=1;resizeParentMax=0;resizeLast=0;collapsible=1;marginBottom=0;fontColor=#000000;strokeColor=#000000;gradientColor=#ffffff;fillColor=#FFFFFF;fontSize=14;" parent="1" vertex="1">
                    <mxGeometry x="400" y="-129" width="326" height="185" as="geometry"/>
                </mxCell>
                <mxCell id="59" value="loadMemberInfo()&#10;addMemberInfo(MemberInfo)&#10;delMemberInfo(std::string name)&#10;delMemberInfo(int *cardNum)&#10;printMemberInfo(int id)&#10;printMemberInfo(std::string name)&#10;printMemberInfo(int *cardNum )&#10;findMemberInfo(int *cardNum)&#10;findMemberInfo(std::string name)" style="text;strokeColor=#000000;fillColor=none;align=left;verticalAlign=middle;spacingLeft=4;spacingRight=4;overflow=hidden;points=[[0,0.5],[1,0.5]];portConstraint=eastwest;rotatable=0;fontColor=#000000;fontStyle=1;fontSize=14;" parent="58" vertex="1">
                    <mxGeometry y="30" width="326" height="155" as="geometry"/>
                </mxCell>
                <mxCell id="67" style="edgeStyle=orthogonalEdgeStyle;rounded=0;html=1;strokeColor=#000000;" parent="1" source="61" target="53" edge="1">
                    <mxGeometry relative="1" as="geometry"/>
                </mxCell>
                <mxCell id="70" style="edgeStyle=orthogonalEdgeStyle;rounded=0;html=1;exitX=1;exitY=0.5;exitDx=0;exitDy=0;strokeColor=#000000;" parent="1" source="61" target="58" edge="1">
                    <mxGeometry relative="1" as="geometry"/>
                </mxCell>
                <mxCell id="61" value="MemberManage&#10;Service" style="swimlane;fontStyle=1;childLayout=stackLayout;horizontal=1;startSize=30;horizontalStack=0;resizeParent=1;resizeParentMax=0;resizeLast=0;collapsible=1;marginBottom=0;fontColor=#000000;strokeColor=#000000;gradientColor=#ffffff;fillColor=#FFFFFF;fontSize=14;" parent="1" vertex="1">
                    <mxGeometry x="1" y="-158" width="241" height="154" as="geometry"/>
                </mxCell>
                <mxCell id="62" value="updateStateEvent()&#10;checkCardNumber(int *CardNum)" style="text;strokeColor=#000000;fillColor=none;align=left;verticalAlign=middle;spacingLeft=4;spacingRight=4;overflow=hidden;points=[[0,0.5],[1,0.5]];portConstraint=eastwest;rotatable=0;fontColor=#000000;fontStyle=1;fontSize=14;" parent="61" vertex="1">
                    <mxGeometry y="30" width="241" height="124" as="geometry"/>
                </mxCell>
                <mxCell id="79" style="edgeStyle=orthogonalEdgeStyle;rounded=0;html=1;exitX=0.75;exitY=0;exitDx=0;exitDy=0;strokeColor=#000000;" edge="1" parent="1" source="72" target="77">
                    <mxGeometry relative="1" as="geometry"/>
                </mxCell>
                <mxCell id="72" value="ManageButton" style="swimlane;fontStyle=1;childLayout=stackLayout;horizontal=1;startSize=12;horizontalStack=0;resizeParent=1;resizeParentMax=0;resizeLast=0;collapsible=1;marginBottom=0;fontColor=#000000;strokeColor=#000000;gradientColor=#ffffff;fillColor=#FFFFFF;fontSize=14;" parent="1" vertex="1">
                    <mxGeometry x="-139" y="460" width="242" height="69" as="geometry"/>
                </mxCell>
                <mxCell id="73" value="checkButton()&#10;getButtonData(): DeviceData" style="text;strokeColor=#000000;fillColor=none;align=left;verticalAlign=middle;spacingLeft=4;spacingRight=4;overflow=hidden;points=[[0,0.5],[1,0.5]];portConstraint=eastwest;rotatable=0;fontColor=#000000;fontStyle=1;fontSize=14;" parent="72" vertex="1">
                    <mxGeometry y="12" width="242" height="57" as="geometry"/>
                </mxCell>
                <mxCell id="77" value="Button" style="swimlane;fontStyle=1;childLayout=stackLayout;horizontal=1;startSize=12;horizontalStack=0;resizeParent=1;resizeParentMax=0;resizeLast=0;collapsible=1;marginBottom=0;fontColor=#000000;strokeColor=#000000;gradientColor=#ffffff;fillColor=#FFFFFF;fontSize=14;" vertex="1" parent="1">
                    <mxGeometry x="-167" y="309" width="140" height="69" as="geometry"/>
                </mxCell>
                <mxCell id="78" value="request()&#10;get_card_serial()" style="text;strokeColor=#000000;fillColor=none;align=left;verticalAlign=middle;spacingLeft=4;spacingRight=4;overflow=hidden;points=[[0,0.5],[1,0.5]];portConstraint=eastwest;rotatable=0;fontColor=#000000;fontStyle=1;fontSize=14;" vertex="1" parent="77">
                    <mxGeometry y="12" width="140" height="57" as="geometry"/>
                </mxCell>
            </root>
        </mxGraphModel>
    </diagram>
</mxfile>